<svg xmlns="http://www.w3.org/2000/svg" width="512" height="512" viewBox="0 0 512 512"><path d="M413.012 226.113C406.146 161.895 354.041 112 288 112c-44.838 0-86.535 22.812-109.396 57.715A62.241 62.241 0 0 0 152.5 164c-34.208 0-61.981 27.487-62.477 61.577C55.092 236.613 32 268.158 32 304c0 43.906 35.594 80 79.5 80h289c43.906 0 79.5-36.094 79.5-80 0-39.648-29.027-71.884-66.988-77.887zM400.5 368h-289C76.486 368 48 339.152 48 304c0-14.272 4.443-27.047 12.85-38.6 8.471-11.64 20.226-20.154 33.994-24.504l11.01-3.51.168-11.562c.179-12.274 5.093-23.795 13.837-32.425 8.751-8.637 20.344-13.396 32.642-13.396a46.08 46.08 0 0 1 19.41 4.246l12.523 5.766 7.555-11.533c20.807-31.768 57.857-50.732 95.762-50.732 27.813 0 52.48 10.265 73.09 28.904 20.466 18.51 33.344 43.737 36.263 71.035l1.303 12.188 12.107 1.915c14.727 2.329 28.253 9.922 38.087 21.381C458.531 274.744 464 288.76 464 304c0 35.152-28.486 64-63.5 64z"/></svg>