<svg xmlns="http://www.w3.org/2000/svg" width="1076" height="1024" viewBox="0 0 1076 1024"><path fill="#cfcfcf" d="M504.946 335.536c45.937 0 83.338-37.294 83.338-83.099s-37.401-83.099-83.338-83.099c-45.937 0-83.338 37.294-83.338 83.099s37.401 83.099 83.338 83.099zm0-121.253c21.114 0 38.263 17.08 38.263 38.154s-17.149 38.154-38.263 38.154c-21.135 0-38.263-17.08-38.263-38.154s17.128-38.154 38.263-38.154z"/><path fill="#cfcfcf" d="M1038.413 375.965L719.282 213.8C705.418 107.99 614.729 25.987 504.945 25.987c-119.259 0-216.379 96.762-216.379 215.758 0 34.018 8.214 67.258 23.48 97.223L58.023 209.984c-6.97-3.597-15.266-3.195-21.997.86a22.391 22.391 0 0 0-10.719 19.116v594.28c0 8.728 5.087 16.7 13.002 20.355l326.783 151.316c.7.299 1.424.458 2.204.699.541.159 1.081.38 1.702.539 1.883.48 3.766.779 5.649.779s3.745-.299 5.628-.779c.541-.159 1.103-.38 1.724-.539.7-.24 1.484-.398 2.103-.699L701.35 848.97l317.248 146.941c3.067 1.398 6.271 2.096 9.475 2.096 4.226 0 8.454-1.159 12.12-3.515a22.365 22.365 0 0 0 10.419-18.957V395.937c.081-8.429-4.628-16.16-12.199-19.975zM504.946 71.016c94.438 0 171.286 76.629 171.286 170.812 0 41.589-15.326 81.76-44.054 114.081l-5.95 6.632c-3.046 3.576-7.734 9.049-9.296 10.768L504.866 494.322 392.72 373.228c-1.021-1.18-4.848-5.614-7.892-9.208l-6.97-7.89c-.321-.458-.7-.86-1.103-1.317-27.848-31.363-43.192-71.474-43.192-113.063.081-94.187 76.929-170.734 171.385-170.734zM70.465 673.944c.562-.219 1.103-.38 1.643-.62.24-.159 25.043-13.803 56.274-18.637 12.281-1.877 20.736-13.343 18.853-25.607-1.883-12.243-13.383-20.595-25.664-18.798-20.353 3.117-38.182 9.129-51.024 14.364V266.64l281.729 143.105v402.792c-6.511 3.117-11.44 9.369-12.521 17.02-1.424 9.908 3.908 19.176 12.521 23.311v87.473L70.547 809.878V673.944h-.081zm326.722 178.304c13.543-3.576 27.226-9.669 40.849-18.957 10.257-7.031 12.903-20.994 5.869-31.201-7.052-10.229-21.054-12.884-31.314-5.854-5.229 3.576-10.316 6.231-15.326 8.489V444.222l91.152 98.481c4.307 4.614 10.257 7.252 16.608 7.252 6.25 0 12.281-2.638 16.587-7.252L649.544 404.43c.942-.94 7.211-8.189 11.119-12.705l4.226-4.854c.862-.86 1.643-1.779 2.424-2.716a213.185 213.185 0 0 0 11.74-14.523v186.814c-7.833 1-15.644 2.497-23.399 4.674-11.981 3.276-19.011 15.681-15.726 27.626 2.745 9.989 11.818 16.46 21.676 16.46 1.964 0 3.986-.24 6.03-.86 3.745-1.018 7.592-1.719 11.419-2.339v207.948L397.345 940.418v-88.175h-.16zm608.51 88.093L723.968 809.878v-207.49c12.059 2.438 23.961-5.375 26.463-17.478 2.505-12.166-5.328-24.029-17.467-26.526-2.965-.62-5.929-.94-8.995-1.398V266.637l281.729 143.105v530.597z"/><path fill="#cfcfcf" d="M261.642 666.853c-16.429-23.652-37.401-40.412-62.203-49.858-11.578-4.455-24.66 1.398-29.109 12.945-4.466 11.546 1.403 24.589 12.981 29.024 16.429 6.252 29.889 17.178 41.249 33.48 4.367 6.333 11.419 9.69 18.531 9.69 4.466 0 8.935-1.338 12.842-3.995 10.337-7.091 12.842-21.134 5.709-31.282zM777.26 625.804c11.899 7.971 23.961 17.957 35.839 29.584a22.576 22.576 0 0 0 15.826 6.471c5.791 0 11.66-2.257 16.026-6.713 8.776-8.809 8.614-23.011-.22-31.761-13.864-13.565-28.105-25.269-42.27-34.797-10.316-6.952-24.261-4.216-31.211 6.094-7.052 10.288-4.226 24.27 6.009 31.123zM588.124 594.283c-18.552 13.343-36.461 29.883-53.37 49.161-8.214 9.369-7.193 23.491 2.183 31.682 4.307 3.755 9.557 5.534 14.804 5.534 6.25 0 12.521-2.578 16.97-7.63 14.644-16.7 30.049-30.901 45.776-42.229 10.097-7.252 12.38-21.293 5.087-31.363-7.271-10.067-21.354-12.406-31.451-5.154zM524.419 694.081c-10.557-6.471-24.4-3.195-30.992 7.331-12.521 20.215-24.961 37.935-37.082 52.676-7.833 9.609-6.41 23.73 3.204 31.603 4.147 3.434 9.236 5.073 14.245 5.073 6.571 0 12.981-2.818 17.45-8.271 13.302-16.301 26.926-35.575 40.467-57.509 6.652-10.528 3.367-24.41-7.292-30.901zM291.451 732.393c-4.688-11.465-17.831-16.999-29.328-12.325-11.518 4.674-17.068 17.798-12.302 29.264 4.547 11.007 17.309 39.252 38.744 63.821 4.466 5.073 10.719 7.732 16.987 7.732a22.44 22.44 0 0 0 14.786-5.534c9.394-8.129 10.316-22.332 2.183-31.682-17.527-20.057-28.166-44.326-31.073-51.278zM877.906 770.547a22.33 22.33 0 0 0 13.624-4.594l17.527-13.343 13.383 17.478c4.448 5.774 11.098 8.809 17.91 8.809 4.769 0 9.557-1.479 13.624-4.594 9.857-7.492 11.818-21.614 4.307-31.44l-13.383-17.478 17.527-13.343c9.857-7.492 11.8-21.614 4.286-31.44-7.511-9.929-21.676-11.786-31.532-4.294l-17.527 13.343-13.383-17.478c-7.511-9.849-21.676-11.786-31.614-4.294-9.857 7.492-11.818 21.614-4.226 31.44l13.383 17.478-17.527 13.343c-9.935 7.492-11.818 21.614-4.307 31.44 4.466 5.932 11.119 8.968 17.931 8.968z"/></svg>