<svg xmlns="http://www.w3.org/2000/svg" width="1024" height="1024" viewBox="0 0 1024 1024"><path fill="#33aa40" d="M772.671 175.687H255.42c-60.283 0-93.087 32.723-93.087 91.812v181.235c0 59.456 33.177 91.798 93.087 91.798h517.251c59.911 0 93.087-32.723 93.886-91.798v-181.6c-.799-59.089-34.417-91.446-93.886-91.446z"/><path fill="#33aa40" d="M350.916 240.764c-8.921 0-16.617-6.369-17.799-15.165-1.612-9.967-2.039-19.144-1.24-27.957-.799-45.919 17.427-87.819 53.4-122.145 36.04-34.312 80.132-51.501 129.112-50.699 48.995-.802 92.715 16.387 128.685 50.699 35.599 33.945 53.827 75.479 53.827 123.368v11.987c0 1.589-.427 3.612-.813 5.2-1.226 8.799-8.921 15.966-17.785 15.966-10.117 0-17.799-7.591-17.799-17.555 0-1.222 0-3.612.799-6.002v-8.799c0-38.723-13.765-70.645-42.484-97.8-29.514-27.957-63.93-41.534-103.618-40.732-40.5-.802-74.861 12.778-104.004 40.732-29.142 27.943-43.28 59.456-42.484 97.379-.427 7.577 0 13.943.813 21.154 1.612 9.6-5.274 18.777-14.95 20.366h-3.662zm419.717 345.7H579.185c-5.259 0-9.731 4.4-9.731 9.6v66.666c0 19.945-16.176 35.912-36.397 35.912h-33.99c-26.293 0-39.687-13.156-40.059-39.143v-63.488c0-5.2-4.461-9.6-9.731-9.6H253.426c-43.721 0-79.748-17.175-96.308-49.477-2.422-4.781-9.731-3.612-9.731 2.009v388.823c0 39.931 32.805 72.234 73.235 72.234h595.772c44.52 0 63.558-18.777 64.371-63.053V552.523c0-9.18-11.729-12.778-17.427-5.2-20.222 25.567-54.254 39.143-92.7 39.143z"/><path fill="#33aa40" d="M864.945 867.889c-8.921 0-16.989-6.79-17.799-15.599-1.24-9.967 5.643-18.777 15.818-19.945 23.499-2.811 45.333-26.354 64.357-69.843 23.072-52.669 34.801-116.578 34.801-190.033 0-72.669-11.729-135.722-35.228-187.223-13.338-31.135-35.599-68.69-64.371-72.248-10.103-1.207-16.989-9.967-15.804-19.931 1.24-9.978 10.103-16.768 20.222-15.599 37.21 4.414 68.391 35.912 93.514 93.4 25.108 55.48 38.009 123.368 38.009 201.18 0 78.222-12.528 146.911-37.637 203.977-24.681 55.9-55.877 86.611-93.087 91.011-1.185.856-1.983.856-2.794.856zm-709.07.42h-2.039c-37.21-4.781-67.978-36.699-91.902-94.623-24.309-55.9-36.397-123.734-35.214-201.967 1.226-78.233 14.564-146.491 40.486-203.556 25.108-55.113 56.676-85.443 93.886-89.476 9.731-1.222 19.039 6.002 19.852 15.966 1.226 9.967-6.084 18.777-16.19 19.564-23.499 2.39-45.705 25.567-65.181 68.69-23.871 52.288-36.397 116.157-37.637 189.232-.799 72.669 10.103 136.157 32.378 187.604 12.955 31.556 34.417 69.056 63.558 73.035 9.731 1.222 16.989 10.388 15.377 19.931-.813 9.18-8.494 15.966-17.372 15.599z"/></svg>