<svg width="24" height="24" viewBox="0 0 24 24" xmlns="http://www.w3.org/2000/svg"><title>share</title><path d="M20.003 7.994a3.983 3.983 0 0 1-3.188-1.599l-8.833 5.288c.01.105.03.2.03.312 0 .128-.03.249-.04.374l8.793 5.296a3.983 3.983 0 1 1-.759 2.32c0-.149.03-.29.04-.436l-8.813-5.212a3.997 3.997 0 1 1-.06-4.773l8.873-5.185c-.01-.127-.04-.251-.04-.382a3.997 3.997 0 1 1 3.997 3.997zm0 13.99a1.998 1.998 0 1 0 0-3.998 1.998 1.998 0 0 0 0 3.997zM4.015 9.991a1.998 1.998 0 1 0 0 3.997 1.998 1.998 0 0 0 0-3.997zM20.003 2a1.998 1.998 0 1 0 0 3.997 1.998 1.998 0 0 0 0-3.997z" fill="#8A8A8A" fill-rule="evenodd"/></svg>