<svg xmlns="http://www.w3.org/2000/svg" width="1117" height="1024" viewBox="0 0 1117 1024"><path d="M949.037 999.96H168.049c-78.309 0-141.826-62.381-141.826-139.292V163.336c0-76.912 63.517-139.292 141.826-139.292h639.162c78.293 0 141.826 62.381 141.826 139.292H186.172c-10.046 0-18.122 7.993-18.122 17.799v34.793c0 9.851 8.14 17.783 18.122 17.783h770.879c74.541 4.244 133.813 64.38 133.813 138.564v488.332c0 76.974-63.517 139.354-141.826 139.354zm0-400.886c0-29.046-23.974-52.638-53.611-52.638h-35.551c-29.573 0-53.594 23.53-53.594 52.638v34.793c0 29.046 23.974 52.654 53.594 52.654h35.551c29.573 0 53.611-23.546 53.611-52.654v-34.793z"/></svg>