<svg xmlns="http://www.w3.org/2000/svg" width="768" height="1024" viewBox="0 0 768 1024"><path d="M237.458 351.198c-17.766 0-31.401-13.965-31.401-32.161V61.753c0-18.196-13.634-32.161-31.401-32.161s-31.401 13.965-31.401 32.161v257.284c0 18.196-13.634 32.161-31.401 32.161s-31.401-13.965-31.401-32.161V61.753c0-18.196-13.634-32.161-31.401-32.161S17.651 43.557 17.651 61.753v300.163h1.033c2.081 39.636 19.903 76.099 45.038 102.898 4.2 4.303 6.265 9.662 6.265 15.021v407.364c0 58.959 47.104 107.201 104.673 107.201s104.673-48.241 104.673-107.201V479.835c0-5.359 2.066-11.778 6.265-15.021 26.168-26.802 42.902-62.191 45.038-102.898h1.033V61.753c0-18.196-13.634-32.161-31.401-32.161s-31.401 13.965-31.401 32.161v257.284c0 18.196-13.634 32.161-31.401 32.161zm230.279 213.346h40.835c17.766 0 31.401 13.95 31.401 32.161v290.501c0 58.959 47.104 107.201 104.673 107.201s104.673-48.241 104.673-107.201V61.757c0-19.324-16.733-34.277-35.603-32.161-234.481 32.161-271.118 389.168-277.383 501.731-1.033 18.196 13.634 33.218 31.401 33.218z"/></svg>