<svg xmlns="http://www.w3.org/2000/svg" width="1024" height="1024" viewBox="0 0 1024 1024"><path fill="#8a8a8a" d="M282.01 345.269c-35.078 0-63.605-28.527-63.605-63.548 0-35.078 28.527-63.592 63.605-63.592s63.592 28.515 63.592 63.592c0 35.021-28.515 63.548-63.592 63.548zm119.506-63.547c0-65.907-53.6-119.506-119.506-119.506-65.861 0-119.464 53.6-119.464 119.506 0 65.861 53.6 119.464 119.464 119.464 65.907 0 119.506-53.6 119.506-119.464zM944.087 908.56c0 19.593-15.935 35.585-35.528 35.585H252.974c-19.608 0-35.528-15.992-35.528-35.585v-46.095H771.02c50.491 0 91.44-40.949 91.44-91.44V217.451h46.095c19.593 0 35.528 15.92 35.528 35.528v655.585zM115.44 806.549c-16.323 0-29.93-11.075-34.11-26.099l280.032-228.63c13.389-10.728 30.163-15.586 47.224-13.564 17.049 2.04 32.243 10.628 42.756 24.235l22.875 29.483c20.157 26.041 50.491 42.698 83.299 45.749 32.765 2.993 65.746-7.735 90.487-29.699l158.546-142.627v305.626c0 19.608-15.92 35.528-35.528 35.528H115.436zM79.913 115.44c0-19.593 15.935-35.528 35.528-35.528h655.585c19.608 0 35.528 15.935 35.528 35.528v274.783L610.789 566.337c-13.272 11.8-30.336 17.453-48.062 15.762-17.741-1.648-33.445-10.279-44.347-24.35l-22.817-29.483c-19.766-25.592-48.339-41.745-80.424-45.518-32.085-3.731-63.605 5.307-88.969 25.637L79.914 709.456V115.44zm828.647 46.096h-46.095v-46.095c0-50.491-40.949-91.44-91.44-91.44H115.44C64.949 24.001 24 64.95 24 115.441v655.585c0 50.491 40.949 91.44 91.44 91.44h46.095v46.095c0 50.491 40.949 91.44 91.44 91.44H908.56c50.491 0 91.44-40.949 91.44-91.44V252.976c0-50.491-40.949-91.44-91.44-91.44z"/></svg>