<svg xmlns="http://www.w3.org/2000/svg" width="1024" height="1024" viewBox="0 0 1024 1024"><path fill="#cfcfcf" d="M512 24C242.951 24 24 242.886 24 512c0 269.049 218.951 488 488 488s488-218.886 488-488c0-269.049-218.951-488-488-488zm0 927.173C269.856 951.173 72.827 754.144 72.827 512 72.827 269.791 269.856 72.827 512 72.827S951.173 269.856 951.173 512 754.144 951.173 512 951.173z"/><path fill="#cfcfcf" d="M742.559 218.125L427.936 387.5c-4.127 2.256-7.616 5.633-9.872 9.872L248.689 711.995c-5.056 9.375-3.377 21.073 4.191 28.625 4.623 4.623 10.864 7.136 17.119 7.136 3.873 0 7.872-.945 11.439-2.881L596.061 575.5c4.127-2.256 7.616-5.633 9.872-9.872l169.375-314.623c5.056-9.375 3.377-21.073-4.191-28.625-7.487-7.568-19.185-9.247-28.561-4.255zm-412.99 445.806l115.745-214.929 99.184 99.184-214.929 115.745zm249.12-149.936l-99.184-99.184 214.929-115.745-115.745 214.929zM487.809 166.877h48.368V70.061h-48.368zM487.809 892.94h48.368v-96.816h-48.368zM826.623 505.677h96.816v-48.368h-96.816zM100.56 505.677h96.816v-48.368H100.56z"/></svg>