<svg xmlns="http://www.w3.org/2000/svg" width="1024" height="1024" viewBox="0 0 1024 1024"><path fill="#8a8a8a" d="M909.125 351.875c-83.41 12.853-219.473 16.339-309.871-144.003C502.332 35.547 345.766 30.319 254.203 46.005c-44.499 7.625-77.816 42.483-77.816 76.25v428.308c26.326 9.367 54.518-.436 61.742-1.742 1.863-.436 3.496-.653 5.591-1.089 58.246-11.983 119.755-17.647 272.128 50.761 191.048 85.617 358.334-72.111 423.103-181.911 4.661-7.625 20.271-44.008 20.271-78.864-22.6 8.714-50.093 14.161-50.093 14.161zM120.7 24.001H83.422c-10.252 0-18.638 7.842-18.638 17.428V982.57c0 9.586 8.387 17.428 18.638 17.428H120.7c10.252 0 18.638-7.842 18.638-17.428V41.429c0-9.586-8.387-17.428-18.638-17.428z"/></svg>