<?xml version="1.0" encoding="UTF-8" standalone="no"?>
<svg width="24px" height="24px" viewBox="0 0 24 24" version="1.1" xmlns="http://www.w3.org/2000/svg" xmlns:xlink="http://www.w3.org/1999/xlink">
    <!-- Generator: Sketch 3.8.3 (29802) - http://www.bohemiancoding.com/sketch -->
    <title>share</title>
    <desc>Created with Sketch.</desc>
    <defs></defs>
    <g id="Symbols" stroke="none" stroke-width="1" fill="none" fill-rule="evenodd">
        <g id="bottom-sub-trip-bar" transform="translate(-232.000000, -10.000000)" fill="#8A8A8A">
            <g id="share">
                <g transform="translate(232.000000, 10.000000)">
                    <path d="M20.002934,7.99401512 C18.7478608,7.99307266 17.5666476,7.40061466 16.8153671,6.39523546 L7.98210948,11.6831992 C7.99210185,11.7881191 8.01208659,11.8830466 8.01208659,11.9949612 C8.01208659,12.1228636 7.98210948,12.2437713 7.9721171,12.368676 L16.7654052,17.6646336 C17.9173512,16.0773896 20.0533134,15.564931 21.8000297,16.4567298 C23.5467459,17.3485286 24.3843207,19.3791484 23.7742568,21.2430542 C23.1641929,23.10696 21.2880707,24.2493759 19.3520949,23.9358147 C17.4161191,23.6222535 15.9965168,21.9460441 16.0059849,19.9848626 C16.0059849,19.8359762 16.035962,19.6940845 16.0459544,19.5491951 L7.23268151,14.3371734 C6.22118918,15.7320324 4.42967363,16.3217071 2.78745004,15.8003148 C1.14522644,15.2789225 0.0219574885,13.7638281 0.000317927861,12.0409585 C-0.0213216328,10.3180888 1.06353924,8.77525984 2.69214927,8.21278531 C4.3207593,7.65031078 6.12652019,8.19480303 7.17272727,9.56381689 L16.0459544,4.37877462 C16.035962,4.25187148 16.0059849,4.12796606 16.0059849,3.99706597 C16.0059849,2.38045095 16.9798103,0.923018254 18.4733678,0.304366468 C19.9669253,-0.314285318 21.6860844,0.0276766855 22.8292039,1.17079613 C23.9723233,2.31391558 24.3142853,4.03307466 23.6956335,5.52663219 C23.0769817,7.02018972 21.619549,7.99401512 20.002934,7.99401512 L20.002934,7.99401512 Z M20.002934,21.9833371 C21.1066611,21.9833371 22.0014086,21.0885896 22.0014086,19.9848626 C22.0014086,18.8811355 21.1066611,17.986388 20.002934,17.986388 C18.899207,17.986388 18.0044595,18.8811355 18.0044595,19.9848626 C18.0044595,21.0885896 18.899207,21.9833371 20.002934,21.9833371 L20.002934,21.9833371 Z M4.01513745,9.99248969 C2.91141042,9.99248969 2.01666288,10.8872372 2.01666288,11.9909643 C2.01666288,13.0946913 2.91141042,13.9894388 4.01513745,13.9894388 C5.11886448,13.9894388 6.01361202,13.0946913 6.01361202,11.9909643 C6.01361202,10.8872372 5.11886448,9.99248969 4.01513745,9.99248969 L4.01513745,9.99248969 Z M20.002934,1.9985914 C18.899207,1.9985914 18.0044595,2.89333895 18.0044595,3.99706597 C18.0044595,5.100793 18.899207,5.99554055 20.002934,5.99554055 C21.1066611,5.99554055 22.0014086,5.100793 22.0014086,3.99706597 C22.0014086,2.89333895 21.1066611,1.9985914 20.002934,1.9985914 L20.002934,1.9985914 Z" id="share1"></path>
                </g>
            </g>
        </g>
    </g>
</svg>