<?xml version="1.0" encoding="utf-8"?>
<!-- Generated by IcoMoon.io -->
<!DOCTYPE svg PUBLIC "-//W3C//DTD SVG 1.1//EN" "http://www.w3.org/Graphics/SVG/1.1/DTD/svg11.dtd">
<svg version="1.1" xmlns="http://www.w3.org/2000/svg" xmlns:xlink="http://www.w3.org/1999/xlink" width="1024" height="1024" viewBox="0 0 1024 1024">
<g id="icomoon-ignore">
</g>
<path fill="#cfcfcf" d="M330.25 430.899c8.749 77.819 66.468 140.92 141.541 157.866-27.228-48.408-42.871-101.953-45.922-157.866h-95.618zM472.065 231.853c-75.289 16.83-133.184 80.090-141.872 158.142h95.677c3.109-56.016 18.87-109.673 46.198-158.142zM552.27 231.968c27.228 48.396 42.871 102.053 45.864 158.024h95.677c-8.691-77.934-66.425-141.078-141.541-158.024zM557.576 389.992c-3.209-52.185-18.636-102.111-45.403-146.675-26.951 44.562-42.424 94.491-45.691 146.675h91.093zM817.001 24h-670.989c-11.25 0-20.344 9.095-20.344 20.331v935.341c0 11.235 9.095 20.331 20.344 20.331h670.989c44.838 0 81.334-36.481 81.334-81.334v-813.333c0-44.853-36.496-81.334-81.334-81.334zM715.325 837.334h-406.65c-11.25 0-20.344-9.095-20.344-20.331 0-11.251 9.095-20.331 20.344-20.331h406.65c11.25 0 20.344 9.080 20.344 20.331 0 11.235-9.095 20.331-20.344 20.331zM512.001 634.008c-123.351 0-223.667-100.317-223.667-223.669s100.316-223.669 223.667-223.669c123.351 0 223.667 100.317 223.667 223.669s-100.316 223.669-223.667 223.669zM551.936 588.808c75.232-16.83 133.069-79.974 141.815-157.909h-95.677c-3.109 55.913-18.87 109.515-46.14 157.909zM466.425 430.899c3.209 52.067 18.636 101.938 45.403 146.458 26.894-44.462 42.424-94.333 45.691-146.458h-91.093z"></path>
</svg>
