<?xml version="1.0" encoding="utf-8"?>
<!-- Generated by IcoMoon.io -->
<!DOCTYPE svg PUBLIC "-//W3C//DTD SVG 1.1//EN" "http://www.w3.org/Graphics/SVG/1.1/DTD/svg11.dtd">
<svg version="1.1" xmlns="http://www.w3.org/2000/svg" xmlns:xlink="http://www.w3.org/1999/xlink" width="1365" height="1024" viewBox="0 0 1365 1024">
<g id="icomoon-ignore">
</g>
<path fill="#000" d="M847.427 40.211c-19.76-6.564-41.636-2.287-57.445 11.211l-280.204 242.048-258.869 48.427c-132.573 24.798-219.705 150.166-194.253 279.612 22.327 113.808 124.536 193.181 239.034 193.675l66.285 145.376c11.255 24.653 38.115 37.51 64.094 32.719 4.382-0.841 8.633-2.066 12.868-3.915 29.351-12.802 42.594-46.452 29.426-75.166l-53.194-116.663 186.722-34.785 351.979 123.739c10.038 3.568 20.567 4.206 30.66 2.342 9.738-1.848 19.105-6.127 26.86-12.564 15.94-13.295 23.264-33.944 19.385-53.933l-144.934-738.984c-4.027-20.062-18.599-36.505-38.415-43.144zM171.024 600.077c-13.318-67.723 32.404-133.505 101.762-146.509l217.382-40.657 48.285 245.889-217.457 40.657c-69.434 13.004-136.732-31.638-149.972-99.38zM897.251 745.745l-239.692-84.291-57.652-293.97 190.824-164.816 106.519 543.076zM1226.865 311.321l-137.555 25.658c-31.542 5.999-52.24 35.716-46.245 66.571 6.070 30.797 36.579 51.007 68.197 45.155l137.555-25.786c31.674-5.852 52.24-35.645 46.225-66.442-6.070-30.852-36.507-51.081-68.177-45.155zM1064.436 202.887c7.755-1.498 15.358-4.572 22.307-9.292l88.463-60.516c26.334-17.996 32.779-53.439 14.272-79.151-18.375-25.712-54.73-31.86-81.009-13.991l-88.519 60.571c-26.278 17.996-32.703 53.365-14.197 79.081 13.542 18.929 36.878 27.359 58.682 23.3zM1268.277 607.228l-105.151-24.361c-31.318-7.226-62.69 11.649-70.089 42.229-7.379 30.56 12.006 61.213 43.248 68.435l105.207 24.288c8.186 1.922 16.463 1.993 24.294 0.568 21.876-4.004 40.307-20.283 45.72-42.723 7.473-30.653-11.913-61.213-43.228-68.435z"></path>
</svg>
