<?xml version="1.0" encoding="utf-8"?>
<!-- Generated by IcoMoon.io -->
<!DOCTYPE svg PUBLIC "-//W3C//DTD SVG 1.1//EN" "http://www.w3.org/Graphics/SVG/1.1/DTD/svg11.dtd">
<svg version="1.1" xmlns="http://www.w3.org/2000/svg" xmlns:xlink="http://www.w3.org/1999/xlink" width="1117" height="1024" viewBox="0 0 1117 1024">
<g id="icomoon-ignore">
</g>
<path fill="#000" d="M949.037 999.96h-780.988c-78.309 0-141.826-62.381-141.826-139.292v-697.332c0-76.912 63.517-139.292 141.826-139.292h639.162c78.293 0 141.826 62.381 141.826 139.292h-762.865c-10.046 0-18.122 7.993-18.122 17.799v34.793c0 9.851 8.14 17.783 18.122 17.783h770.879c74.541 4.244 133.813 64.38 133.813 138.564v488.332c0 76.974-63.517 139.354-141.826 139.354zM949.037 599.074c0-29.046-23.974-52.638-53.611-52.638h-35.551c-29.573 0-53.594 23.53-53.594 52.638v34.793c0 29.046 23.974 52.654 53.594 52.654h35.551c29.573 0 53.611-23.546 53.611-52.654v-34.793z"></path>
</svg>
