<?xml version="1.0" encoding="utf-8"?>
<!-- Generated by IcoMoon.io -->
<!DOCTYPE svg PUBLIC "-//W3C//DTD SVG 1.1//EN" "http://www.w3.org/Graphics/SVG/1.1/DTD/svg11.dtd">
<svg version="1.1" xmlns="http://www.w3.org/2000/svg" xmlns:xlink="http://www.w3.org/1999/xlink" width="992" height="1024" viewBox="0 0 992 1024">
<g id="icomoon-ignore">
</g>
<path fill="#cfcfcf" d="M872.227 536.299c-41.25-81.365-88.731-156.669-113.030-193.796 27.776-8.15 52.134-17.516 73.166-27.695l-16.073 73.862c-3.194 14.596 6.135 28.979 20.765 32.165 1.935 0.438 3.874 0.607 5.797 0.607 12.481 0 23.692-8.645 26.447-21.323l28.216-129.607c20.27-20.435 30.59-42.248 30.59-64.006-0.098-84.723-155.436-170.431-452.176-170.431-296.851 0-452.119 85.709-452.119 170.431 0 21.589 10.163 43.234 30.095 63.512 0.057 1.424 0.154 2.919 0.495 4.343l132.522 604.999c1.101 4.85 3.479 9.365 6.955 12.944 43.793 45.393 149.26 94.143 278.516 95.568 0.439 0.057 0.89 0.057 1.329 0.057h4.369c0.439 0 0.876 0 1.258-0.057 129.328-1.383 234.794-50.174 278.516-95.568 3.49-3.582 5.91-8.095 6.969-13l14.078-64.726c26.010 26.933 50.635 37.017 68.572 40.372 5.527 1.057 10.997 1.552 16.396 1.552 16.568 0 32.413-4.793 45.728-14.101 58.578-40.881 46.379-140.961-37.39-306.104v0zM184.111 130.706c77.521-26.172 181.165-40.599 291.82-40.599 242.853 0 397.851 68.916 397.851 116.337 0 8.207-5.527 18.839-18.447 30.459-0.665 0.551-1.386 1.101-1.993 1.706-16.453 14.101-43.722 29.473-85.578 43.631-77.535 26.158-181.179 40.599-291.833 40.599-242.895 0-397.896-68.916-397.896-116.337 0-18.46 27.776-49.354 106.075-75.796v0zM878.587 798.108c-5.752 4.018-12.82 5.288-21.047 3.751-11.211-2.102-33.954-11.52-60.133-50.625-1.101-1.649-2.318-3.088-3.689-4.414l29.813-137.097c3.209-14.596-6.079-28.979-20.71-32.18-14.686-3.186-29.036 6.12-32.244 20.716l-56.981 261.655c-33.968 30.347-122.317 73.428-237.721 73.977-115.46-0.551-203.809-43.631-237.763-74.034l-119.432-545.505c75.428 37.017 195.187 62.583 357.254 62.583 88.518 0 164.385-7.657 227.333-20.66 160.738 236.484 216.404 413.135 175.327 441.831v0z"></path>
<path fill="#cfcfcf" d="M289.392 554.2c0.909 0.096 1.83 0.096 2.739 0.096 6.344 0 12.523-2.317 17.423-6.513l84.447-74.095c10.97-9.657 12.044-26.362 2.476-37.342-9.619-10.994-26.286-12.071-37.257-2.482l-63.007 55.292-14.63-19.506c-8.754-11.697-25.254-14.070-36.924-5.283s-14.038 25.327-5.27 37.012l31.67 42.31c4.35 5.931 11.025 9.698 18.333 10.511v0z"></path>
<path fill="#cfcfcf" d="M299.92 702.33c0.922 0.11 1.83 0.165 2.753 0.165 6.399 0 12.523-2.317 17.409-6.579l84.462-74.095c10.97-9.588 12.044-26.293 2.476-37.342-9.619-10.994-26.286-12.125-37.257-2.482l-63.007 55.292-14.63-19.506c-8.768-11.697-25.268-14.070-36.939-5.283-11.657 8.786-14.023 25.382-5.259 37.027l31.655 42.295c4.419 5.986 11.025 9.753 18.333 10.511v0z"></path>
<path fill="#cfcfcf" d="M390.894 719.574l-63.061 55.292-14.575-19.506c-8.754-11.697-25.323-14.070-36.924-5.283-11.671 8.786-14.038 25.382-5.27 37.012l31.67 42.364c4.404 5.876 11.065 9.698 18.388 10.456 0.909 0.096 1.815 0.15 2.739 0.15 6.344 0 12.523-2.317 17.354-6.567l84.462-74.095c10.97-9.602 12.044-26.308 2.476-37.302-9.619-11.036-26.286-12.111-37.257-2.526v0z"></path>
<path fill="#cfcfcf" d="M629.912 598.494c-77.527 33.992-146.493 19.286-147.786 19.286-14.575 0-26.396 11.85-26.396 26.458s11.821 26.458 26.396 26.458c3.221 0 80.43 15.091 168.913-23.713 13.391-5.876 19.461-21.45 13.596-34.86-5.795-13.367-21.387-19.451-34.722-13.629v0z"></path>
<path fill="#cfcfcf" d="M640.455 463.605c-78.063 34.226-157.584 19.3-158.329 19.3-14.575 0.055-26.396 11.85-26.396 26.458 0 14.596 11.821 26.458 26.396 26.458 3.648 0 90.959 15.080 179.454-23.713 13.377-5.876 19.461-21.45 13.596-34.874-5.861-13.355-21.346-19.506-34.722-13.629v0z"></path>
<path fill="#cfcfcf" d="M619.369 741.715c-77.25 33.893-136.060 19.3-137.243 19.3-14.575 0.055-26.342 11.85-26.342 26.458 0 14.596 11.821 26.458 26.396 26.458 2.794 0 69.887 15.080 158.369-23.713 13.337-5.876 19.475-21.45 13.611-34.86-5.861-13.422-21.456-19.506-34.792-13.644v0z"></path>
</svg>
