<?xml version="1.0" encoding="utf-8"?>
<!-- Generated by IcoMoon.io -->
<!DOCTYPE svg PUBLIC "-//W3C//DTD SVG 1.1//EN" "http://www.w3.org/Graphics/SVG/1.1/DTD/svg11.dtd">
<svg version="1.1" xmlns="http://www.w3.org/2000/svg" xmlns:xlink="http://www.w3.org/1999/xlink" width="1024" height="1024" viewBox="0 0 1024 1024">
<g id="icomoon-ignore">
</g>
<path fill="#8a8a8a" d="M282.010 345.269c-35.078 0-63.605-28.527-63.605-63.548 0-35.078 28.527-63.592 63.605-63.592s63.592 28.515 63.592 63.592c0 35.021-28.515 63.548-63.592 63.548zM401.516 281.722c0-65.907-53.6-119.506-119.506-119.506-65.861 0-119.464 53.6-119.464 119.506 0 65.861 53.6 119.464 119.464 119.464 65.907 0 119.506-53.6 119.506-119.464zM944.087 908.56c0 19.593-15.935 35.585-35.528 35.585h-655.585c-19.608 0-35.528-15.992-35.528-35.585v-46.095h553.574c50.491 0 91.44-40.949 91.44-91.44v-553.574h46.095c19.593 0 35.528 15.92 35.528 35.528v655.585zM115.44 806.549c-16.323 0-29.93-11.075-34.11-26.099l280.032-228.63c13.389-10.728 30.163-15.586 47.224-13.564 17.049 2.040 32.243 10.628 42.756 24.235l22.875 29.483c20.157 26.041 50.491 42.698 83.299 45.749 32.765 2.993 65.746-7.735 90.487-29.699l158.546-142.627v305.626c0 19.608-15.92 35.528-35.528 35.528h-655.585zM79.913 115.44c0-19.593 15.935-35.528 35.528-35.528h655.585c19.608 0 35.528 15.935 35.528 35.528v274.783l-195.765 176.114c-13.272 11.8-30.336 17.453-48.062 15.762-17.741-1.648-33.445-10.279-44.347-24.35l-22.817-29.483c-19.766-25.592-48.339-41.745-80.424-45.518-32.085-3.731-63.605 5.307-88.969 25.637l-246.256 201.071v-594.016zM908.56 161.536h-46.095v-46.095c0-50.491-40.949-91.44-91.44-91.44h-655.585c-50.491 0-91.44 40.949-91.44 91.44v655.585c0 50.491 40.949 91.44 91.44 91.44h46.095v46.095c0 50.491 40.949 91.44 91.44 91.44h655.585c50.491 0 91.44-40.949 91.44-91.44v-655.585c0-50.491-40.949-91.44-91.44-91.44z"></path>
</svg>
