<?xml version="1.0" encoding="utf-8"?>
<!-- Generated by IcoMoon.io -->
<!DOCTYPE svg PUBLIC "-//W3C//DTD SVG 1.1//EN" "http://www.w3.org/Graphics/SVG/1.1/DTD/svg11.dtd">
<svg version="1.1" xmlns="http://www.w3.org/2000/svg" xmlns:xlink="http://www.w3.org/1999/xlink" width="853" height="1024" viewBox="0 0 853 1024">
<g id="icomoon-ignore">
</g>
<path fill="#000" d="M802.935 855.849c-1.084-4.392-4.608-7.845-9.161-8.798-14.841-3.134-29.642-6.895-43.946-11.288-148.616-45.51-263.488-153.674-315.253-296.715-51.75-143.107-31.876-297.665 54.495-424.184 8.353-12.238 17.405-24.276 26.897-35.723 2.949-3.51 3.484-8.37 1.44-12.454-1.975-4.070-6.215-6.64-10.878-6.587-50.201 0.631-99.867 9.305-147.656 25.789-240.679 82.949-367.347 341.597-282.363 576.53 84.971 234.947 349.913 358.655 590.592 275.639 47.801-16.47 91.993-40.168 131.484-70.442 3.702-2.772 5.364-7.377 4.349-11.769z"></path>
</svg>
