<?xml version="1.0" encoding="utf-8"?>
<!-- Generated by IcoMoon.io -->
<!DOCTYPE svg PUBLIC "-//W3C//DTD SVG 1.1//EN" "http://www.w3.org/Graphics/SVG/1.1/DTD/svg11.dtd">
<svg version="1.1" xmlns="http://www.w3.org/2000/svg" xmlns:xlink="http://www.w3.org/1999/xlink" width="1024" height="1024" viewBox="0 0 1024 1024">
<g id="icomoon-ignore">
</g>
<path fill="#33aa40" d="M512.001 552.668c-189.376 0-381.061-41.89-381.061-122 0-80.122 191.685-122 381.061-122s381.061 41.876 381.061 122c0 80.11-191.685 122-381.061 122zM512.001 349.338c-220.617 0-340.937 53.732-340.937 81.334s120.32 81.334 340.937 81.334c220.617 0 340.937-53.732 340.937-81.334s-120.32-81.334-340.937-81.334z"></path>
<path fill="#33aa40" d="M512.001 1000c-126.854 0-223.172-34.068-257.814-91.093-1.053-1.731-1.81-3.565-2.31-5.544l-120.282-467.567c-2.798-10.879 3.62-21.953 14.338-24.803 10.59-2.693 21.666 3.656 24.477 14.536l119.473 464.419c22.719 33.952 92.364 69.387 222.119 69.387 132.065 0 201.608-36.711 222.068-69.088l119.524-464.718c2.811-10.879 13.888-17.229 24.477-14.536 10.718 2.85 17.136 13.924 14.338 24.803l-120.282 467.567c-0.462 1.731-1.104 3.409-2.015 5.037-32.589 57.336-129.049 91.6-258.11 91.6z"></path>
<path fill="#33aa40" d="M873.001 450.994c-11.078 0-20.062-9.097-20.062-20.327 0-184.736-166.861-365.999-336.83-365.999-174.128 0-345.044 181.263-345.044 365.999 0 11.231-8.985 20.327-20.062 20.327s-20.062-9.097-20.062-20.327c0-205.272 190.788-406.667 385.169-406.667 193.791 0 376.954 197.633 376.954 406.667 0 11.283-8.985 20.327-20.062 20.327z"></path>
</svg>
