<?xml version="1.0" encoding="utf-8"?>
<!-- Generated by IcoMoon.io -->
<!DOCTYPE svg PUBLIC "-//W3C//DTD SVG 1.1//EN" "http://www.w3.org/Graphics/SVG/1.1/DTD/svg11.dtd">
<svg version="1.1" xmlns="http://www.w3.org/2000/svg" xmlns:xlink="http://www.w3.org/1999/xlink" width="1024" height="1024" viewBox="0 0 1024 1024">
<g id="icomoon-ignore">
</g>
<path fill="#cfcfcf" d="M512 24c-269.049 0-488 218.886-488 488 0 269.049 218.951 488 488 488s488-218.886 488-488c0-269.049-218.951-488-488-488v0zM512 951.173c-242.144 0-439.173-197.029-439.173-439.173 0-242.209 197.029-439.173 439.173-439.173s439.173 197.029 439.173 439.173c0 242.144-197.029 439.173-439.173 439.173v0z"></path>
<path fill="#cfcfcf" d="M742.559 218.125l-314.623 169.375c-4.127 2.256-7.616 5.633-9.872 9.872l-169.375 314.623c-5.056 9.375-3.377 21.073 4.191 28.625 4.623 4.623 10.864 7.136 17.119 7.136 3.873 0 7.872-0.945 11.439-2.881l314.623-169.375c4.127-2.256 7.616-5.633 9.872-9.872l169.375-314.623c5.056-9.375 3.377-21.073-4.191-28.625-7.487-7.568-19.185-9.247-28.561-4.255v0zM329.569 663.931l115.745-214.929 99.184 99.184-214.929 115.745zM578.689 513.995l-99.184-99.184 214.929-115.745-115.745 214.929z"></path>
<path fill="#cfcfcf" d="M487.809 166.877h48.368v-96.816h-48.368z"></path>
<path fill="#cfcfcf" d="M487.809 892.94h48.368v-96.816h-48.368z"></path>
<path fill="#cfcfcf" d="M826.623 505.677h96.816v-48.368h-96.816z"></path>
<path fill="#cfcfcf" d="M100.56 505.677h96.816v-48.368h-96.816z"></path>
</svg>
