<?xml version="1.0" encoding="utf-8"?>
<!-- Generated by IcoMoon.io -->
<!DOCTYPE svg PUBLIC "-//W3C//DTD SVG 1.1//EN" "http://www.w3.org/Graphics/SVG/1.1/DTD/svg11.dtd">
<svg version="1.1" xmlns="http://www.w3.org/2000/svg" xmlns:xlink="http://www.w3.org/1999/xlink" width="1024" height="1024" viewBox="0 0 1024 1024">
<g id="icomoon-ignore">
</g>
<path fill="#33aa40" d="M511.999 552.666c-189.375 0-381.061-41.889-381.061-122 0-80.124 191.687-122 381.061-122s381.061 41.877 381.061 122c0 80.111-191.687 122-381.061 122zM511.999 349.336c-220.616 0-340.938 53.732-340.938 81.335s120.322 81.335 340.938 81.335c220.616 0 340.938-53.732 340.938-81.335s-120.322-81.335-340.938-81.335z"></path>
<path fill="#33aa40" d="M511.999 1000c-126.852 0-223.171-34.068-257.816-91.094-1.054-1.732-1.809-3.567-2.31-5.544l-120.281-467.568c-2.798-10.88 3.621-21.953 14.338-24.802 10.588-2.694 21.667 3.656 24.478 14.537l119.472 464.421c22.721 33.951 92.365 69.388 222.12 69.388 132.065 0 201.608-36.71 222.069-69.087l119.526-464.72c2.811-10.88 13.887-17.231 24.478-14.537 10.717 2.849 17.136 13.925 14.338 24.802l-120.281 467.568c-0.46 1.732-1.104 3.409-2.015 5.035-32.59 57.336-129.047 91.599-258.111 91.599z"></path>
<path fill="#33aa40" d="M872.999 450.994c-11.076 0-20.062-9.097-20.062-20.328 0-184.738-166.863-365.999-336.83-365.999-174.126 0-345.046 181.262-345.046 365.999 0 11.231-8.986 20.328-20.062 20.328s-20.062-9.097-20.062-20.328c0-205.273 190.787-406.666 385.17-406.666 193.791 0 376.953 197.633 376.953 406.666 0 11.283-8.986 20.328-20.062 20.328z"></path>
<path fill="#33aa40" d="M450.185 544.145l-123.626-27.473-164.836-41.208 82.418 288.462 41.208 164.836c0 0 87.167 34.579 123.626 41.208s103.022 0 103.022 0c0 0 110.341 6.162 144.232 0s82.418-41.208 82.418-41.208l41.208-164.836 82.418-288.462-288.462 67.873v-26.665h-123.626v27.473z"></path>
</svg>
